<svg xmlns="http://www.w3.org/2000/svg" xmlns:xlink="http://www.w3.org/1999/xlink" width="500" zoomAndPan="magnify" viewBox="0 0 375 374.999991" height="500" preserveAspectRatio="xMidYMid meet" version="1.0"><defs><clipPath id="476da8956d"><path d="M 22 21.070312 L 343.75 21.070312 L 343.75 342.820312 L 22 342.820312 Z M 22 21.070312 " clip-rule="nonzero"/></clipPath><clipPath id="e506737a2f"><path d="M 43 31 L 260 31 L 260 322 L 43 322 Z M 43 31 " clip-rule="nonzero"/></clipPath><clipPath id="01fab52b61"><path d="M 120.96875 -15.125 L 354.691406 102.722656 L 217.59375 374.617188 L -16.125 256.769531 Z M 120.96875 -15.125 " clip-rule="nonzero"/></clipPath><clipPath id="e02561aff4"><path d="M 120.96875 -15.125 L 354.691406 102.722656 L 217.59375 374.617188 L -16.125 256.769531 Z M 120.96875 -15.125 " clip-rule="nonzero"/></clipPath><clipPath id="fac5e29eb2"><path d="M 71 69 L 265 69 L 265 299 L 71 299 Z M 71 69 " clip-rule="nonzero"/></clipPath><clipPath id="ae48d6c6ee"><path d="M 120.96875 -15.125 L 354.691406 102.722656 L 217.59375 374.617188 L -16.125 256.769531 Z M 120.96875 -15.125 " clip-rule="nonzero"/></clipPath><clipPath id="a9734cd71f"><path d="M 120.96875 -15.125 L 354.691406 102.722656 L 217.59375 374.617188 L -16.125 256.769531 Z M 120.96875 -15.125 " clip-rule="nonzero"/></clipPath></defs><path fill="#5ce1e6" d="M 185.910156 375.285156 C 81.285156 375.285156 -3.464844 289.949219 -3.464844 185.910156 C -3.464844 81.871094 81.285156 -3.464844 185.910156 -3.464844 C 290.53125 -3.464844 375.285156 81.285156 375.285156 185.910156 C 375.285156 290.53125 289.949219 375.285156 185.910156 375.285156 Z M 185.910156 8.222656 C 87.714844 8.222656 8.222656 87.714844 8.222656 185.910156 C 8.222656 284.101562 87.714844 363.59375 185.910156 363.59375 C 284.101562 363.59375 363.59375 284.101562 363.59375 185.910156 C 363.59375 87.714844 283.519531 8.222656 185.910156 8.222656 Z M 185.910156 8.222656 " fill-opacity="1" fill-rule="nonzero"/><g clip-path="url(#476da8956d)"><path fill="#1f3e40" d="M 343.75 181.945312 C 343.75 184.578125 343.6875 187.210938 343.558594 189.839844 C 343.425781 192.46875 343.234375 195.09375 342.976562 197.714844 C 342.71875 200.335938 342.394531 202.949219 342.007812 205.550781 C 341.625 208.15625 341.171875 210.75 340.660156 213.332031 C 340.144531 215.914062 339.570312 218.480469 338.929688 221.035156 C 338.289062 223.589844 337.585938 226.125 336.824219 228.644531 C 336.058594 231.164062 335.234375 233.664062 334.347656 236.144531 C 333.460938 238.621094 332.511719 241.078125 331.503906 243.511719 C 330.496094 245.941406 329.429688 248.347656 328.304688 250.730469 C 327.179688 253.109375 325.996094 255.460938 324.753906 257.78125 C 323.511719 260.105469 322.214844 262.394531 320.863281 264.652344 C 319.507812 266.910156 318.101562 269.132812 316.636719 271.324219 C 315.175781 273.511719 313.660156 275.664062 312.089844 277.78125 C 310.523438 279.894531 308.902344 281.96875 307.234375 284.003906 C 305.5625 286.039062 303.84375 288.03125 302.078125 289.984375 C 300.308594 291.933594 298.492188 293.839844 296.632812 295.703125 C 294.769531 297.5625 292.863281 299.378906 290.914062 301.148438 C 288.960938 302.914062 286.96875 304.632812 284.933594 306.304688 C 282.898438 307.976562 280.824219 309.59375 278.707031 311.164062 C 276.59375 312.730469 274.441406 314.246094 272.253906 315.710938 C 270.0625 317.171875 267.839844 318.578125 265.582031 319.933594 C 263.324219 321.285156 261.035156 322.585938 258.710938 323.824219 C 256.390625 325.066406 254.039062 326.25 251.660156 327.375 C 249.277344 328.5 246.871094 329.566406 244.441406 330.574219 C 242.007812 331.582031 239.550781 332.53125 237.074219 333.417969 C 234.59375 334.304688 232.09375 335.128906 229.574219 335.894531 C 227.054688 336.660156 224.519531 337.359375 221.964844 338 C 219.410156 338.640625 216.84375 339.214844 214.261719 339.730469 C 211.679688 340.242188 209.085938 340.695312 206.480469 341.078125 C 203.875 341.464844 201.265625 341.789062 198.644531 342.046875 C 196.023438 342.304688 193.398438 342.5 190.769531 342.628906 C 188.140625 342.757812 185.507812 342.820312 182.875 342.820312 C 180.242188 342.820312 177.613281 342.757812 174.980469 342.628906 C 172.351562 342.5 169.726562 342.304688 167.105469 342.046875 C 164.488281 341.789062 161.875 341.464844 159.269531 341.078125 C 156.667969 340.695312 154.074219 340.242188 151.492188 339.730469 C 148.910156 339.214844 146.339844 338.640625 143.785156 338 C 141.230469 337.359375 138.695312 336.660156 136.175781 335.894531 C 133.65625 335.128906 131.15625 334.304688 128.679688 333.417969 C 126.199219 332.53125 123.742188 331.582031 121.3125 330.574219 C 118.878906 329.566406 116.472656 328.5 114.09375 327.375 C 111.710938 326.25 109.363281 325.066406 107.039062 323.824219 C 104.71875 322.585938 102.425781 321.285156 100.167969 319.933594 C 97.910156 318.578125 95.6875 317.171875 93.5 315.710938 C 91.308594 314.246094 89.15625 312.730469 87.042969 311.164062 C 84.929688 309.59375 82.851562 307.976562 80.816406 306.304688 C 78.78125 304.632812 76.789062 302.914062 74.839844 301.148438 C 72.886719 299.378906 70.980469 297.5625 69.121094 295.703125 C 67.257812 293.839844 65.441406 291.933594 63.675781 289.984375 C 61.90625 288.03125 60.1875 286.039062 58.519531 284.003906 C 56.847656 281.96875 55.226562 279.894531 53.660156 277.78125 C 52.089844 275.664062 50.574219 273.511719 49.113281 271.324219 C 47.648438 269.132812 46.242188 266.910156 44.886719 264.652344 C 43.535156 262.394531 42.238281 260.105469 40.996094 257.78125 C 39.753906 255.460938 38.570312 253.109375 37.445312 250.730469 C 36.320312 248.347656 35.253906 245.941406 34.246094 243.511719 C 33.238281 241.078125 32.292969 238.621094 31.40625 236.144531 C 30.519531 233.664062 29.691406 231.164062 28.929688 228.644531 C 28.164062 226.125 27.460938 223.589844 26.820312 221.035156 C 26.183594 218.480469 25.605469 215.914062 25.09375 213.332031 C 24.578125 210.75 24.128906 208.15625 23.742188 205.550781 C 23.355469 202.949219 23.035156 200.335938 22.773438 197.714844 C 22.515625 195.09375 22.324219 192.46875 22.195312 189.839844 C 22.066406 187.210938 22 184.578125 22 181.945312 C 22 179.3125 22.066406 176.683594 22.195312 174.050781 C 22.324219 171.421875 22.515625 168.796875 22.773438 166.179688 C 23.035156 163.558594 23.355469 160.945312 23.742188 158.339844 C 24.128906 155.738281 24.578125 153.144531 25.09375 150.5625 C 25.605469 147.980469 26.183594 145.410156 26.820312 142.855469 C 27.460938 140.304688 28.164062 137.765625 28.929688 135.246094 C 29.691406 132.726562 30.519531 130.226562 31.40625 127.75 C 32.292969 125.269531 33.238281 122.816406 34.246094 120.382812 C 35.253906 117.949219 36.320312 115.542969 37.445312 113.164062 C 38.570312 110.785156 39.753906 108.433594 40.996094 106.109375 C 42.238281 103.789062 43.535156 101.5 44.886719 99.238281 C 46.242188 96.980469 47.648438 94.757812 49.113281 92.570312 C 50.574219 90.378906 52.089844 88.226562 53.660156 86.113281 C 55.226562 84 56.847656 81.921875 58.519531 79.886719 C 60.1875 77.851562 61.90625 75.859375 63.675781 73.910156 C 65.441406 71.957031 67.257812 70.050781 69.121094 68.191406 C 70.980469 66.328125 72.886719 64.515625 74.839844 62.746094 C 76.789062 60.976562 78.78125 59.257812 80.816406 57.589844 C 82.851562 55.917969 84.929688 54.296875 87.042969 52.730469 C 89.15625 51.160156 91.308594 49.644531 93.5 48.183594 C 95.6875 46.722656 97.910156 45.3125 100.167969 43.960938 C 102.425781 42.605469 104.71875 41.308594 107.039062 40.066406 C 109.363281 38.828125 111.710938 37.644531 114.09375 36.515625 C 116.472656 35.390625 118.878906 34.324219 121.3125 33.316406 C 123.742188 32.308594 126.199219 31.363281 128.679688 30.476562 C 131.15625 29.589844 133.65625 28.761719 136.175781 28 C 138.695312 27.234375 141.230469 26.53125 143.785156 25.894531 C 146.339844 25.253906 148.910156 24.675781 151.492188 24.164062 C 154.074219 23.648438 156.667969 23.199219 159.269531 22.8125 C 161.875 22.425781 164.488281 22.105469 167.105469 21.847656 C 169.726562 21.589844 172.351562 21.394531 174.980469 21.265625 C 177.613281 21.136719 180.242188 21.070312 182.875 21.070312 C 185.507812 21.070312 188.140625 21.136719 190.769531 21.265625 C 193.398438 21.394531 196.023438 21.589844 198.644531 21.847656 C 201.265625 22.105469 203.875 22.425781 206.480469 22.8125 C 209.085938 23.199219 211.679688 23.648438 214.261719 24.164062 C 216.84375 24.675781 219.410156 25.253906 221.964844 25.894531 C 224.519531 26.53125 227.054688 27.234375 229.574219 28 C 232.09375 28.761719 234.59375 29.589844 237.074219 30.476562 C 239.550781 31.363281 242.007812 32.308594 244.441406 33.316406 C 246.871094 34.324219 249.277344 35.390625 251.660156 36.515625 C 254.039062 37.644531 256.390625 38.828125 258.710938 40.066406 C 261.035156 41.308594 263.324219 42.605469 265.582031 43.960938 C 267.839844 45.3125 270.0625 46.722656 272.253906 48.183594 C 274.441406 49.644531 276.59375 51.160156 278.707031 52.730469 C 280.824219 54.296875 282.898438 55.917969 284.933594 57.589844 C 286.96875 59.257812 288.960938 60.976562 290.914062 62.746094 C 292.863281 64.515625 294.769531 66.328125 296.632812 68.191406 C 298.492188 70.050781 300.308594 71.957031 302.078125 73.910156 C 303.84375 75.859375 305.5625 77.851562 307.234375 79.886719 C 308.902344 81.921875 310.523438 84 312.089844 86.113281 C 313.660156 88.226562 315.175781 90.378906 316.636719 92.570312 C 318.101562 94.757812 319.507812 96.980469 320.863281 99.238281 C 322.214844 101.5 323.511719 103.789062 324.753906 106.109375 C 325.996094 108.433594 327.179688 110.785156 328.304688 113.164062 C 329.429688 115.542969 330.496094 117.949219 331.503906 120.382812 C 332.511719 122.816406 333.460938 125.269531 334.347656 127.75 C 335.234375 130.226562 336.058594 132.726562 336.824219 135.246094 C 337.585938 137.765625 338.289062 140.304688 338.929688 142.855469 C 339.570312 145.410156 340.144531 147.980469 340.660156 150.5625 C 341.171875 153.144531 341.625 155.738281 342.007812 158.339844 C 342.394531 160.945312 342.71875 163.558594 342.976562 166.179688 C 343.234375 168.796875 343.425781 171.421875 343.558594 174.050781 C 343.6875 176.683594 343.75 179.3125 343.75 181.945312 Z M 343.75 181.945312 " fill-opacity="1" fill-rule="nonzero"/></g><g clip-path="url(#e506737a2f)"><g clip-path="url(#01fab52b61)"><g clip-path="url(#e02561aff4)"><path fill="#f2f8fd" d="M 125.855469 61.546875 C 93.765625 80.019531 69.429688 111.800781 61.664062 151.042969 C 47.425781 223.109375 94.046875 293.054688 165.925781 307.269531 C 199.449219 313.933594 232.585938 307.234375 259.777344 290.953125 C 230.167969 315.253906 190.632812 326.636719 150.460938 318.707031 C 78.585938 304.492188 32.074219 233.519531 46.578125 160.179688 C 55.664062 114.394531 86.472656 78.535156 125.855469 61.546875 Z M 134.167969 147.152344 C 129.234375 142.496094 123.296875 138.582031 115.003906 138.113281 C 124.398438 133.609375 132.96875 132.136719 140.296875 135.75 C 150.058594 140.671875 140.925781 153.730469 134.167969 147.152344 Z M 228.492188 138.5 C 229.390625 129.035156 228.488281 119.125 221.816406 109.636719 C 234.890625 115.984375 244.042969 124.09375 246.359375 135.34375 C 249.433594 150.300781 227.226562 151.59375 228.492188 138.5 Z M 193.132812 37.738281 C 189.488281 48.933594 182.113281 57.757812 169.496094 63.722656 C 184.320312 64.449219 200.132812 60.261719 208.445312 49.792969 C 219.460938 35.894531 197.753906 23.625 193.132812 37.738281 Z M 143.914062 43.453125 C 143.996094 54.359375 140.097656 64.234375 130.851562 73.226562 C 144.027344 69.546875 156.675781 61.214844 160.9375 49.546875 C 166.507812 34.148438 143.855469 29.714844 143.914062 43.453125 Z M 143.914062 43.453125 " fill-opacity="1" fill-rule="evenodd"/></g></g></g><g clip-path="url(#fac5e29eb2)"><g clip-path="url(#ae48d6c6ee)"><g clip-path="url(#a9734cd71f)"><path fill="#5ce1e6" d="M 210.910156 71.652344 C 147.296875 59.03125 85.824219 98.992188 73.535156 160.851562 C 61.246094 222.710938 102.886719 283.097656 166.496094 295.71875 C 202.644531 302.867188 238.109375 293.058594 264.3125 271.863281 C 242.664062 280.859375 216.589844 283.699219 189.796875 278.398438 C 176.332031 275.726562 163.867188 271.285156 152.640625 265.40625 C 131.257812 254.164062 125.957031 230.25 127.746094 207.960938 C 128.480469 198.335938 114.1875 191.832031 113.792969 205.667969 C 113.644531 210.253906 121.792969 227.769531 106.871094 227.074219 C 99.355469 226.78125 92.296875 216.773438 97.632812 196.515625 C 103.09375 175.699219 114.9375 163.601562 120.832031 159.746094 C 133.429688 151.523438 109.988281 131.628906 107.171875 154.402344 C 105.332031 169.433594 98.488281 169.476562 94.40625 167.417969 C 85.382812 162.703125 85.761719 138.484375 119.382812 129.699219 C 125.367188 128.140625 131.863281 126.753906 138.113281 126.816406 C 150.332031 126.855469 150.304688 108.011719 137.777344 111.371094 C 134.464844 112.246094 131.019531 114.464844 128.691406 115.539062 C 112.257812 123.371094 105.550781 104.875 122.183594 99.550781 C 141.359375 93.316406 176.824219 104.613281 205.148438 106.652344 C 217.335938 107.511719 219.117188 86.628906 200.957031 87.46875 C 193.203125 87.8125 187.429688 90.183594 180.417969 90.984375 C 165.078125 92.730469 157.730469 78.730469 174.09375 75.496094 C 197.78125 70.777344 223.753906 88.125 238.832031 105.105469 C 253.125 121.171875 283.316406 86.003906 210.910156 71.652344 Z M 210.910156 71.652344 " fill-opacity="1" fill-rule="evenodd"/></g></g></g></svg>